<?xml version="1.0" encoding="UTF-8"?>
<svg width="516px" height="121px" viewBox="0 0 516 121" version="1.1" xmlns="http://www.w3.org/2000/svg" xmlns:xlink="http://www.w3.org/1999/xlink">
    <!-- Generator: Sketch 49 (51002) - http://www.bohemiancoding.com/sketch -->
    <title>homebot-full-logo-tagline</title>
    <desc>Created with Sketch.</desc>
    <defs></defs>
    <g id="Page-1" stroke="none" stroke-width="1" fill="none" fill-rule="evenodd">
        <g id="homebot-full-logo-tagline">
            <path d="M181.579,94.481 L181.579,62.849 C181.579,57.942 180.547,54.374 178.483,52.146 C176.419,49.917 173.218,48.803 168.88,48.803 C163.047,48.803 158.777,50.276 156.07,53.223 C153.362,56.169 152.009,60.949 152.009,67.559 L152.009,94.481 L147.566,94.481 L147.566,24.662 L152.009,24.662 L152.009,46.873 L151.784,53.111 L152.098,53.111 C153.923,50.179 156.227,48.055 159.009,46.739 C161.791,45.423 165.246,44.764 169.374,44.764 C180.443,44.764 185.977,50.702 185.977,62.578 L185.977,94.481 L181.579,94.481 Z M242.111,70.026 C242.111,77.983 240.182,84.199 236.323,88.671 C232.464,93.144 227.139,95.38 220.348,95.38 C216.07,95.38 212.301,94.349 209.041,92.284 C205.78,90.219 203.282,87.258 201.547,83.397 C199.812,79.54 198.945,75.083 198.945,70.026 C198.945,62.069 200.874,55.869 204.733,51.425 C208.592,46.983 213.887,44.761 220.618,44.761 C227.318,44.761 232.576,47.012 236.39,51.515 C240.204,56.018 242.111,62.188 242.111,70.026 Z M203.611,70.026 C203.611,76.727 205.084,81.956 208.031,85.71 C210.978,89.464 215.143,91.341 220.528,91.341 C225.912,91.341 230.078,89.464 233.025,85.71 C235.971,81.956 237.444,76.728 237.444,70.026 C237.444,63.296 235.956,58.075 232.98,54.366 C230.003,50.657 225.823,48.802 220.438,48.802 C215.053,48.802 210.903,50.649 207.986,54.344 C205.069,58.039 203.611,63.267 203.611,70.026 Z M316.553,94.481 L316.553,62.489 C316.553,57.732 315.626,54.26 313.774,52.078 C311.919,49.894 309.078,48.802 305.249,48.802 C300.253,48.802 296.561,50.178 294.165,52.93 C291.771,55.682 290.575,60.005 290.575,65.897 L290.575,94.481 L286.043,94.481 L286.043,61.144 C286.043,52.916 282.273,48.803 274.734,48.803 C269.62,48.803 265.894,50.291 263.562,53.268 C261.228,56.244 260.062,61.008 260.062,67.56 L260.062,94.482 L255.62,94.482 L255.62,45.707 L259.3,45.707 L260.242,52.393 L260.511,52.393 C261.86,49.97 263.774,48.092 266.255,46.761 C268.736,45.43 271.477,44.764 274.467,44.764 C282.155,44.764 287.09,47.651 289.276,53.425 L289.457,53.425 C291.042,50.643 293.174,48.504 295.851,47.008 C298.529,45.512 301.574,44.764 304.984,44.764 C310.307,44.764 314.301,46.185 316.963,49.027 C319.625,51.869 320.957,56.386 320.957,62.578 L320.957,94.481 L316.553,94.481 Z M356.444,95.38 C349.352,95.38 343.828,93.196 339.864,88.828 C335.9,84.461 333.919,78.343 333.919,70.475 C333.919,62.698 335.833,56.465 339.662,51.786 C343.491,47.104 348.651,44.763 355.141,44.763 C360.883,44.763 365.415,46.768 368.739,50.776 C372.057,54.785 373.718,60.229 373.718,67.109 L373.718,70.7 L338.583,70.7 C338.644,77.399 340.206,82.514 343.272,86.046 C346.336,89.577 350.726,91.341 356.442,91.341 C359.222,91.341 361.67,91.148 363.779,90.758 C365.886,90.369 368.555,89.531 371.788,88.245 L371.788,92.284 C369.036,93.477 366.493,94.295 364.16,94.727 C361.829,95.163 359.256,95.38 356.444,95.38 Z M355.144,48.713 C350.449,48.713 346.677,50.261 343.835,53.357 C340.993,56.454 339.333,60.918 338.856,66.752 L369.007,66.752 C369.007,61.099 367.781,56.678 365.328,53.492 C362.876,50.306 359.48,48.713 355.144,48.713 Z M407.777,44.764 C414.596,44.764 419.736,46.911 423.191,51.204 C426.646,55.496 428.373,61.77 428.373,70.026 C428.373,78.132 426.557,84.384 422.922,88.785 C419.287,93.181 414.179,95.381 407.599,95.381 C404.128,95.381 401.002,94.663 398.22,93.228 C395.441,91.791 393.241,89.757 391.624,87.124 L391.22,87.124 L389.963,94.481 L387.182,94.481 L387.182,24.662 L391.624,24.662 L391.624,42.207 C391.624,44.839 391.564,47.262 391.444,49.476 L391.307,53.29 L391.621,53.29 C393.475,50.358 395.711,48.205 398.329,46.829 C400.949,45.452 404.099,44.764 407.777,44.764 Z M407.688,48.803 C401.946,48.803 397.833,50.449 395.348,53.741 C392.867,57.031 391.623,62.461 391.623,70.027 L391.623,70.793 C391.623,78.15 392.916,83.434 395.504,86.633 C398.091,89.834 402.122,91.436 407.598,91.436 C412.922,91.436 416.931,89.573 419.622,85.848 C422.315,82.123 423.661,76.823 423.661,69.942 C423.662,55.848 418.337,48.803 407.688,48.803 Z M482.219,70.026 C482.219,77.983 480.29,84.199 476.432,88.671 C472.575,93.144 467.247,95.38 460.457,95.38 C456.179,95.38 452.41,94.349 449.149,92.284 C445.885,90.219 443.388,87.258 441.655,83.397 C439.92,79.54 439.051,75.083 439.051,70.026 C439.051,62.069 440.983,55.869 444.839,51.425 C448.698,46.983 453.993,44.761 460.725,44.761 C467.425,44.761 472.683,47.012 476.496,51.515 C480.313,56.02 482.219,62.188 482.219,70.026 Z M443.72,70.026 C443.72,76.727 445.196,81.956 448.14,85.71 C451.086,89.464 455.252,91.341 460.636,91.341 C466.024,91.341 470.189,89.464 473.133,85.71 C476.08,81.956 477.553,76.728 477.553,70.026 C477.553,63.296 476.068,58.075 473.088,54.366 C470.112,50.657 465.932,48.802 460.546,48.802 C455.162,48.802 451.011,50.649 448.095,54.344 C445.178,58.039 443.72,63.267 443.72,70.026 Z M508.604,91.431 C511.417,91.431 513.871,91.193 515.962,90.713 L515.962,94.303 C513.809,95.021 511.325,95.38 508.514,95.38 C504.206,95.38 501.03,94.228 498.979,91.925 C496.93,89.621 495.907,86.002 495.907,81.066 L495.907,49.566 L488.681,49.566 L488.681,46.963 L495.907,44.944 L498.151,33.905 L500.437,33.905 L500.437,45.707 L514.75,45.707 L514.75,49.566 L500.437,49.566 L500.437,80.437 C500.437,84.177 501.094,86.945 502.414,88.742 C503.729,90.534 505.792,91.431 508.604,91.431 Z" id="Shape" fill="#352E46" fill-rule="nonzero"></path>
            <path d="M60.021,0 C26.872,0 0,26.873 0,60.021 C0,93.169 26.872,120.041 60.02,120.041 C93.168,120.041 120.04,93.17 120.04,60.021 C120.041,26.873 93.168,0 60.021,0" id="Path" fill="#EF5BA1"></path>
            <path d="M60.021,114.298 C30.093,114.298 5.744,89.948 5.744,60.021 C5.744,30.093 30.093,5.744 60.021,5.744 C89.949,5.744 114.298,30.093 114.298,60.021 C114.297,89.948 89.948,114.298 60.021,114.298" id="Shape" fill="#352E46" fill-rule="nonzero"></path>
            <path d="M64.594,59.428 C64.594,63.422 67.836,66.661 71.835,66.661 C73.7546262,66.6625919 75.5962181,65.9013444 76.954443,64.5448075 C78.3126678,63.1882706 79.0762048,61.3476267 79.077,59.428 C79.0764699,57.5081082 78.3130819,55.6671047 76.9548571,54.3101927 C75.5966323,52.9532808 73.7548914,52.1916735 71.835,52.193 C67.838,52.193 64.594,55.432 64.594,59.428 Z M41.104,59.428 C41.104,63.422 44.346,66.661 48.346,66.661 C52.347,66.661 55.589,63.422 55.589,59.428 C55.5882047,57.5080163 54.8245943,55.6670154 53.4662107,54.3101321 C52.1078271,52.9532489 50.2659834,52.1916735 48.346,52.193 C44.346,52.193 41.104,55.432 41.104,59.428 Z M49.254,86.106 L41.334,86.106 C38.7386519,86.1071049 36.6336564,84.0043478 36.632,81.409 L36.632,73.44 L33.835,73.44 C32.4376233,73.4400017 31.3042067,72.3083749 31.302,70.911 L31.302,60.681 C31.3022652,60.0094718 31.569283,59.3655531 32.0443127,58.8908985 C32.5193423,58.4162439 33.1634718,58.1497347 33.835,58.15 L36.63,58.15 L36.63,48.116 C36.6322081,45.5214334 38.7364325,43.419447 41.331,43.42 L58.675,43.42 L58.675,40.547 C55.278,39.859 52.725,36.865 52.725,33.271 C52.7257953,31.3006252 53.5094235,29.411297 54.903439,28.0187819 C56.2974545,26.6262667 58.1876254,25.8446735 60.158,25.846 C64.264,25.846 67.592,29.169 67.592,33.271 C67.592,36.97 64.884,40.035 61.342,40.603 L61.342,43.42 L78.74,43.42 C81.3353483,43.4183425 83.4407917,45.5206521 83.443,48.116 L83.443,58.15 L86.201,58.15 C86.8732208,58.1486725 87.5183784,58.4147126 87.9942737,58.8894823 C88.4701689,59.364252 88.7377358,60.0087779 88.738,60.681 L88.738,70.911 C88.73694,71.5827936 88.4690539,72.2266511 87.993274,72.7009308 C87.517494,73.1752105 86.8727936,73.4410617 86.201,73.44 L83.443,73.44 L83.443,81.409 C83.4402403,84.0042805 81.335282,86.1065534 78.74,86.106 L49.254,86.106 Z M45.721,73.349 C44.133,73.349 42.845,74.662 42.845,76.228 L42.845,76.666 C42.845,78.256 44.137,79.546 45.721,79.546 L75.115,79.546 C76.704,79.546 77.991,78.233 77.991,76.666 L77.991,76.228 C77.9904499,74.6393711 76.7036274,73.3512063 75.115,73.349 L45.721,73.349 Z" id="Shape" fill="#FFFFFF" fill-rule="nonzero"></path>
        </g>
    </g>
</svg>